<?xml version="1.0" standalone="no"?>
<!DOCTYPE svg PUBLIC "-//W3C//DTD SVG 20010904//EN"
 "http://www.w3.org/TR/2001/REC-SVG-20010904/DTD/svg10.dtd">
<svg version="1.0" xmlns="http://www.w3.org/2000/svg"
 width="1024.000000pt" height="1024.000000pt" viewBox="0 0 1024.000000 1024.000000"
 preserveAspectRatio="xMidYMid meet">

<g transform="translate(0.000000,1024.000000) scale(0.100000,-0.100000)"
fill="#000000" stroke="none">
<path d="M840 9696 c0 -3 25 -55 206 -435 35 -73 64 -135 64 -137 0 -2 36 -79
80 -170 44 -92 80 -168 80 -169 0 -2 43 -91 95 -200 52 -108 95 -198 95 -200
0 -1 43 -91 95 -200 52 -108 95 -198 95 -200 0 -2 43 -92 95 -200 52 -109 95
-199 95 -200 0 -2 43 -92 95 -200 52 -109 95 -198 95 -200 0 -2 45 -96 100
-210 55 -114 100 -208 100 -210 0 -2 43 -91 95 -200 52 -108 95 -198 95 -200
0 -2 65 -137 145 -299 80 -163 145 -298 145 -300 0 -2 34 -73 75 -159 41 -86
75 -161 75 -167 0 -7 360 -10 1110 -10 671 0 1110 4 1110 9 0 10 -30 76 -204
439 -58 122 -106 224 -106 226 0 3 -43 93 -95 201 -52 109 -95 199 -95 200 0
2 -43 92 -95 200 -52 109 -95 199 -95 200 0 1 -33 72 -74 156 -40 85 -88 185
-105 222 -18 38 -70 148 -117 244 -46 97 -84 177 -84 178 0 2 -43 92 -95 200
-52 109 -95 199 -95 200 0 2 -43 92 -95 200 -52 109 -95 198 -95 200 0 4 -153
322 -255 530 -51 105 -121 249 -155 320 -33 72 -84 178 -112 238 l-51 107
-1109 0 c-609 0 -1108 -2 -1108 -4z"/>
<path d="M7270 8630 l0 -1070 -1070 0 -1070 0 0 -1070 0 -1070 1070 0 1070 0
0 1070 0 1070 1070 0 1070 0 0 1070 0 1070 -1070 0 -1070 0 0 -1070z"/>
<path d="M4950 5128 c-19 -40 -73 -156 -122 -257 -48 -101 -88 -185 -88 -186
0 -2 -43 -92 -95 -200 -52 -109 -95 -199 -95 -201 0 -2 -37 -79 -83 -171 -46
-92 -110 -224 -142 -293 -32 -69 -96 -203 -142 -299 -45 -95 -83 -175 -83
-176 0 -2 -43 -92 -95 -200 -52 -109 -95 -199 -95 -200 0 -2 -43 -92 -95 -200
-52 -109 -95 -198 -95 -200 0 -1 -43 -91 -95 -200 -52 -108 -95 -198 -95 -200
0 -2 -39 -83 -86 -181 -47 -99 -109 -228 -136 -289 -90 -197 -105 -228 -197
-419 -50 -104 -91 -190 -91 -191 0 -1 -31 -67 -69 -146 -122 -256 -181 -381
-181 -385 0 -2 499 -4 1108 -4 l1109 0 38 82 c21 46 78 166 127 266 48 101 88
185 88 187 0 3 103 220 212 445 200 414 238 493 238 495 0 2 43 92 95 200 52
109 95 198 95 200 0 1 43 91 95 200 52 108 95 198 95 200 0 1 43 91 95 199 52
108 95 199 95 200 0 2 45 97 100 211 55 114 100 208 100 210 0 1 34 74 76 161
97 203 128 270 199 424 32 69 96 203 142 299 45 95 83 175 83 176 0 2 36 79
81 171 91 189 159 335 159 340 0 2 -499 4 -1109 4 l-1108 0 -33 -72z"/>
</g>
</svg>
